8_ID_stride5.mot
nRows=5
nColumns=38

name 8_ID_stride5.mot
datacolumns 38
datarows 5
range 2.6500000000 2.6700000000
endheader
time	pelvis_tilt_moment	pelvis_list_moment	pelvis_rotation_moment	pelvis_tx_force	pelvis_ty_force	pelvis_tz_force	hip_flexion_r_moment	hip_adduction_r_moment	hip_rotation_r_moment	knee_angle_r_moment	ankle_angle_r_moment	subtalar_angle_r_moment	mtp_angle_r_moment	hip_flexion_l_moment	hip_adduction_l_moment	hip_rotation_l_moment	knee_angle_l_moment	ankle_angle_l_moment	subtalar_angle_l_moment	mtp_angle_l_moment	lumbar_extension_moment	lumbar_bending_moment	lumbar_rotation_moment	arm_flex_r_moment	arm_add_r_moment	arm_rot_r_moment	elbow_flex_r_moment	pro_sup_r_moment	wrist_flex_r_moment	wrist_dev_r_moment	arm_flex_l_moment	arm_add_l_moment	arm_rot_l_moment	elbow_flex_l_moment	pro_sup_l_moment	wrist_flex_l_moment	wrist_dev_l_moment
        2.6500000000	       27.0105022072	      -26.8810933515	       34.7226522187	      -18.2048724491	      -78.7159647156	      -13.6226319303	      -18.5372794538	      -11.0877570638	        2.0973293397	       -0.5185391764	        2.3856075202	       -0.5556517182	        0.1399396951	       -2.3922692714	      -23.6689121814	      -21.7071372444	      -13.4166187780	     -168.5973523382	       20.9024580865	       -0.0550195441	        7.4548113426	        2.6287507377	       41.1382702468	        5.6199954787	        5.5707878963	        4.5828891602	        3.6463320014	        0.0636783131	        0.5541587172	       -0.1736775375	       -2.5387210141	       -2.7499921018	       -3.5088066027	        3.2918603365	       -0.1835800709	       -0.3363403742	       -0.3430519960	
        2.6550000000	       20.9329648981	      -15.4728611498	       28.5594990680	        6.4446090956	      -71.6221349534	      -14.1525881794	      -19.9357648279	      -12.4200577298	        2.0029685222	       -1.0064106875	        2.4209521317	       -0.5702772175	        0.1408865792	       11.9317344232	      -20.4880640496	      -15.6687294628	      -10.1734065266	     -149.1380002790	       20.7233194764	       -0.0635258861	        4.9398885202	        6.4504122859	       39.0588118319	        5.3773152345	        4.8656041228	        4.1440041727	        3.2536324474	        0.0602855538	        0.5052015750	       -0.1501341070	       -2.4490680844	       -2.3595693748	       -3.2183473244	        2.8966265845	       -0.1676688152	       -0.3169491979	       -0.3042670678	
        2.6600000000	        9.1909726627	       -6.3084578207	       20.7018081214	       22.5326202508	      -55.8671223236	      -19.5721449931	      -20.8369203961	      -12.7612927169	        1.4623002063	       -1.4707277840	        2.4565390928	       -0.5716067694	        0.1424048005	       22.8591496093	      -20.3972407304	       -8.4647924263	       -8.3094248561	     -129.1719930768	       19.5419880137	       -0.0711451999	        3.1641423581	        9.4530061303	       36.6872275752	        5.1509237075	        4.1783802572	        3.6906874736	        2.9078905813	        0.0549578513	        0.4551556453	       -0.1320496652	       -2.2342402819	       -1.9486384883	       -2.9076813658	        2.5499281567	       -0.1518231507	       -0.2932596965	       -0.2699521690	
        2.6650000000	       -2.0965820778	       -2.6097346492	       15.3434297208	       32.2033693566	      -32.5163562098	      -26.8973369930	      -21.3041155519	      -12.3047426922	        0.6447641114	       -1.9521285675	        2.4903323307	       -0.5615404053	        0.1439559731	       27.4100436354	      -21.7486320877	       -3.8979780076	       -8.4005566136	     -110.5828736873	       17.2821790080	       -0.0757200052	        2.2316885422	       10.7976648075	       34.3451466766	        4.9536419271	        3.5607941627	        3.2682376774	        2.6167604826	        0.0499057298	        0.4090185079	       -0.1186799326	       -2.0288031391	       -1.5666399381	       -2.6116651599	        2.2406035673	       -0.1373151944	       -0.2698821627	       -0.2401787428	
        2.6700000000	       -8.3713848143	       -2.5823819431	       14.4762849616	       38.8844356714	       -7.4483934461	      -34.5615695829	      -21.4731917972	      -11.0435432706	       -0.2317321240	       -2.4725871746	        2.5199242164	       -0.5525270976	        0.1450575961	       26.9647064607	      -19.3529423222	       -3.2248627256	      -12.1439450980	      -94.9383829338	       14.8693923910	       -0.0762183910	        2.1325484739	        9.9276119258	       32.3085838049	        4.7802207400	        3.0366684597	        2.9057201672	        2.3781438279	        0.0462488616	        0.3700310490	       -0.1089145669	       -1.9038627971	       -1.2439896196	       -2.3522513329	        1.9511426268	       -0.1247826022	       -0.2495977993	       -0.2141492204	
